<svg width="128" height="128" viewBox="0 0 128 128" fill="none" xmlns="http://www.w3.org/2000/svg">
<rect width="128" height="128" fill="#110011"/>
<path d="M88.1081 80C84.5045 80 80.6126 79.3514 76.4324 78.0541C72.3964 76.6126 67.5676 74.3063 61.9459 71.1351C56.3243 68.1081 51.9279 66.0901 48.7568 65.0811C45.7297 63.9279 43.1351 63.3514 40.973 63.3514C38.0901 63.3514 35.3514 63.9279 32.7568 65.0811C30.3063 66.2342 28 68.5405 25.8378 72C24.5405 74.1622 22.955 75.3874 21.0811 75.6757C19.2072 75.964 17.4775 75.6036 15.8919 74.5946C14.4505 73.4414 13.4414 71.9279 12.8649 70.0541C12.2883 68.1802 12.6487 66.1622 13.946 64C16.973 58.6667 20.7207 54.7027 25.1892 52.1081C29.6577 49.3694 34.4865 48 39.6757 48C43.2793 48 47.0991 48.6486 51.1351 49.9459C55.1712 51.0991 60 53.1892 65.6216 56.2162C70.6667 58.955 74.8468 61.045 78.1622 62.4865C81.4775 63.9279 84.3604 64.6487 86.8108 64.6487C89.6937 64.6487 92.4324 64.0721 95.027 62.9189C97.6216 61.6216 100 59.2432 102.162 55.7838C103.459 53.6216 105.045 52.4685 106.919 52.3243C108.793 52.036 110.523 52.3964 112.108 53.4054C113.694 54.4144 114.703 55.8559 115.135 57.7297C115.712 59.6036 115.351 61.6216 114.054 63.7838C111.027 69.1171 107.279 73.1532 102.811 75.8919C98.3423 78.6306 93.4414 80 88.1081 80Z" fill="#605860"/>
<g filter="url(#filter0_d_1267_2)">
<path d="M33.0018 90.126L81.6918 100.475C83.5366 100.868 85.4616 100.511 87.0433 99.4836C88.625 98.4564 89.7339 96.843 90.126 94.9982L100.475 46.3082C100.868 44.4634 100.511 42.5384 99.4836 40.9567C98.4564 39.375 96.843 38.2661 94.9982 37.874L46.3082 27.5246C44.4634 27.1325 42.5384 27.4893 40.9567 28.5164C39.375 29.5436 38.2661 31.1571 37.874 33.0018L27.5246 81.6918C27.1325 83.5366 27.4892 85.4616 28.5164 87.0433C29.5436 88.625 31.157 89.7339 33.0018 90.126ZM44.2432 71.8123C46.548 69.7995 50.1011 70.2948 51.7677 72.8611V72.8611C53.4871 75.5087 57.1923 75.9355 59.4687 73.7483L63.4075 69.9636C67.4251 66.1033 74.0597 67.4294 76.2847 72.5374L80.8055 82.9158C82.1048 85.8986 79.489 89.1022 76.3067 88.4258L43.0447 81.3558C39.8206 80.6704 38.7625 76.5984 41.2453 74.4303L44.2432 71.8123Z" fill="#FFEEFF"/>
</g>
<g filter="url(#filter1_d_1267_2)">
<path d="M48.9577 28.0875L60.6955 30.5824L55.3937 55.5252C54.7048 58.7665 51.5187 60.8356 48.2774 60.1466V60.1466C45.0361 59.4577 42.967 56.2716 43.656 53.0303L48.9577 28.0875Z" fill="#BB86FC"/>
</g>
<defs>
<filter id="filter0_d_1267_2" x="3.36916" y="3.36917" width="121.262" height="121.262" filterUnits="userSpaceOnUse" color-interpolation-filters="sRGB">
<feFlood flood-opacity="0" result="BackgroundImageFix"/>
<feColorMatrix in="SourceAlpha" type="matrix" values="0 0 0 0 0 0 0 0 0 0 0 0 0 0 0 0 0 0 127 0" result="hardAlpha"/>
<feOffset/>
<feGaussianBlur stdDeviation="12"/>
<feComposite in2="hardAlpha" operator="out"/>
<feColorMatrix type="matrix" values="0 0 0 0 0 0 0 0 0 0 0 0 0 0 0 0 0 0 0.25 0"/>
<feBlend mode="normal" in2="BackgroundImageFix" result="effect1_dropShadow_1267_2"/>
<feBlend mode="normal" in="SourceGraphic" in2="effect1_dropShadow_1267_2" result="shape"/>
</filter>
<filter id="filter1_d_1267_2" x="19.5236" y="4.08749" width="65.1719" height="80.1915" filterUnits="userSpaceOnUse" color-interpolation-filters="sRGB">
<feFlood flood-opacity="0" result="BackgroundImageFix"/>
<feColorMatrix in="SourceAlpha" type="matrix" values="0 0 0 0 0 0 0 0 0 0 0 0 0 0 0 0 0 0 127 0" result="hardAlpha"/>
<feOffset/>
<feGaussianBlur stdDeviation="12"/>
<feComposite in2="hardAlpha" operator="out"/>
<feColorMatrix type="matrix" values="0 0 0 0 0 0 0 0 0 0 0 0 0 0 0 0 0 0 0.3 0"/>
<feBlend mode="normal" in2="BackgroundImageFix" result="effect1_dropShadow_1267_2"/>
<feBlend mode="normal" in="SourceGraphic" in2="effect1_dropShadow_1267_2" result="shape"/>
</filter>
</defs>
</svg>
